# xmcd
#
# Track frame offsets: 
#        150
#        17632
#        32210
#        52360
#        68416
#        84977
#        99711
#        116243
#        131208
#        147419
#        163954
#        175344
#
# Disc length: 2613 seconds
#
# Revision: 0
# Processed by: cddbd v1.5.2PL0 Copyright (c) Steve Scherf et al.
# Submitted via: ExactAudioCopy v1.3
#
DISCID=b20a330c
DTITLE=Big Al and The Heavyweights - World Full Of Trouble
DYEAR=2018
DGENRE=Blues
TTITLE0=World Full Of Trouble
TTITLE1=Fool For You
TTITLE2=Love So Fine
TTITLE3=Testify
TTITLE4=Bayou Life
TTITLE5=Big Old Rusty Car
TTITLE6=Spanish Moss
TTITLE7=Mother Trucker
TTITLE8=Millionaire Baby
TTITLE9=Crazy About You Baby
TTITLE10=Two Wrongs Don't Make A Right
TTITLE11=Something Got To Change
EXTD=
EXTT0=
EXTT1=
EXTT2=
EXTT3=
EXTT4=
EXTT5=
EXTT6=
EXTT7=
EXTT8=
EXTT9=
EXTT10=
EXTT11=
PLAYORDER=
